<?xml version="1.0" encoding="iso-8859-1"?>
<!-- Generator: Adobe Illustrator 18.0.0, SVG Export Plug-In . SVG Version: 6.00 Build 0)  -->
<!DOCTYPE svg PUBLIC "-//W3C//DTD SVG 1.1//EN" "http://www.w3.org/Graphics/SVG/1.1/DTD/svg11.dtd">
<svg version="1.1" id="_x31_" xmlns="http://www.w3.org/2000/svg" xmlns:xlink="http://www.w3.org/1999/xlink" x="0px" y="0px"
	 viewBox="0 0 512 512" style="enable-background:new 0 0 512 512;" xml:space="preserve">
<g>
	<rect style="fill:#A0D7DC;" width="512" height="512"/>
	<path style="opacity:0.1;fill:#040000;" d="M512,246.016V512H246.272l-85.76-85.76c-0.205-0.973-0.307-1.997-0.307-3.021V118.784
		l46.233-46.234h129.178c1.126,0,2.202,0.103,3.277,0.358l12.544,12.544c0,0.051,0,0.051,0,0.051L512,246.016z"/>
	<g>
		<path style="fill:#2D2D33;" d="M351.795,88.781v334.438c0,8.909-7.27,16.23-16.179,16.23H176.384c-1.024,0-1.997-0.102-2.97-0.307
			c-6.502-1.178-11.674-6.4-12.902-12.902c-0.205-0.973-0.307-1.997-0.307-3.021V88.781c0-8.909,7.27-16.23,16.179-16.23h159.232
			c1.126,0,2.202,0.103,3.277,0.358c6.247,1.28,11.264,6.298,12.544,12.544c0,0.051,0,0.051,0,0.051
			C351.693,86.579,351.795,87.654,351.795,88.781z"/>
		<path style="fill:#1E1F21;" d="M280.626,103.2h-49.253c-2.037,0-3.704-1.667-3.704-3.704l0,0c0-2.037,1.667-3.704,3.704-3.704
			h49.253c2.037,0,3.704,1.667,3.704,3.704l0,0C284.33,101.533,282.663,103.2,280.626,103.2z"/>
		<path style="fill:#121313;" d="M284.199,98.032c-0.617-0.503-1.4-0.804-2.254-0.804h-49.471c-1.974,0-3.596,1.615-3.596,3.596
			v0.215c0,0.481,0.1,0.94,0.28,1.364c-0.826-0.653-1.357-1.672-1.357-2.799v-0.215c0-1.981,1.622-3.596,3.596-3.596h49.471
			C282.368,95.792,283.661,96.718,284.199,98.032z"/>
		<circle style="fill:#1E1F21;" cx="256" cy="412.009" r="14.713"/>
		<path style="fill:#121313;" d="M268.895,402.866c-2.448-1.917-5.527-3.058-8.872-3.058c-7.953,0-14.406,6.453-14.406,14.413
			c0,3.338,1.134,6.41,3.043,8.851c-3.381-2.634-5.556-6.747-5.556-11.363c0-7.96,6.453-14.413,14.413-14.413
			C262.141,397.296,266.261,399.478,268.895,402.866z"/>
		<polygon style="opacity:0.3;fill:#F4F4F5;" points="172.694,119.877 172.694,345.569 172.694,345.927 172.694,383.851 
			339.306,383.851 339.306,345.927 339.306,345.569 339.306,119.877 		"/>
		<g>
			<linearGradient id="SVGID_1_" gradientUnits="userSpaceOnUse" x1="256" y1="383.8513" x2="256" y2="119.8768">
				<stop  offset="0.1304" style="stop-color:#A9DBE5"/>
				<stop  offset="1" style="stop-color:#A9DBE5"/>
			</linearGradient>
			<rect x="172.694" y="119.877" style="fill:url(#SVGID_1_);" width="166.612" height="263.974"/>
			<rect x="172.694" y="345.927" style="opacity:0.2;fill:#F4F4F5;" width="166.612" height="37.924"/>
			<rect x="172.694" y="345.568" style="opacity:0.2;fill:#F4F4F5;" width="166.612" height="0.359"/>
			<rect x="172.694" y="345.568" style="opacity:0.2;fill:#F4F4F5;" width="166.612" height="0.359"/>
			<g style="opacity:0.4;">
				<rect x="196" y="164" style="fill:#F4F4F5;" width="123" height="56"/>
				<polygon style="fill:#F4F4F5;" points="251.94,236 196,236 196,230 266.296,230 				"/>
				<polygon style="fill:#F4F4F5;" points="268.45,148 226,148 226,143 282.806,143 				"/>
				<polygon style="fill:#F4F4F5;" points="307.929,256 196,256 196,251 322.285,251 				"/>
				<polygon style="fill:#F4F4F5;" points="307.929,276 196,276 196,266 322.285,266 				"/>
				<polygon style="fill:#F4F4F5;" points="307.929,292 196,292 196,287 322.285,287 				"/>
				<polygon style="fill:#F4F4F5;" points="307.929,312 196,312 196,307 322.285,307 				"/>
				<polygon style="fill:#F4F4F5;" points="292.137,328 196,328 196,323 306.493,323 				"/>
				<path style="fill:#F4F4F5;" d="M205.47,133.187l10.406,9.657c0.621,0.576,0.621,1.559,0,2.135l-10.406,9.657
					c-0.559,0.518-1.422,0.518-1.981,0l-10.406-9.657c-0.621-0.576-0.621-1.559,0-2.135l10.406-9.657
					C204.047,132.669,204.911,132.669,205.47,133.187z"/>
				<g>
					<polygon style="fill:#F4F4F5;" points="305.033,128.626 307.542,130.954 305.033,133.282 302.524,130.954 					"/>
					<polygon style="fill:#F4F4F5;" points="313.154,128.626 315.663,130.954 313.154,133.282 310.645,130.954 					"/>
					<polygon style="fill:#F4F4F5;" points="296.912,128.626 299.421,130.954 296.912,133.282 294.403,130.954 					"/>
				</g>
			</g>
			<g>
				<path style="opacity:0.3;fill:#F4F4F5;" d="M194,379.185L194,379.185c-7.402,0-13.459-6.056-13.459-13.459l0,0
					c0-7.402,6.057-13.459,13.459-13.459l0,0c7.402,0,13.459,6.056,13.459,13.459l0,0C207.458,373.129,201.402,379.185,194,379.185z
					"/>
				<path style="opacity:0.3;fill:#F4F4F5;" d="M235.333,379.185L235.333,379.185c-7.402,0-13.459-6.056-13.459-13.459l0,0
					c0-7.402,6.057-13.459,13.459-13.459h0c7.402,0,13.459,6.056,13.459,13.459l0,0
					C248.792,373.129,242.736,379.185,235.333,379.185z"/>
				<path style="opacity:0.3;fill:#F4F4F5;" d="M276.667,379.185L276.667,379.185c-7.402,0-13.459-6.056-13.459-13.459l0,0
					c0-7.402,6.057-13.459,13.459-13.459h0c7.402,0,13.459,6.056,13.459,13.459l0,0
					C290.126,373.129,284.069,379.185,276.667,379.185z"/>
				<path style="opacity:0.3;fill:#F4F4F5;" d="M318,379.185L318,379.185c-7.402,0-13.459-6.056-13.459-13.459l0,0
					c0-7.402,6.056-13.459,13.459-13.459l0,0c7.402,0,13.459,6.056,13.459,13.459l0,0C331.459,373.129,325.403,379.185,318,379.185z
					"/>
			</g>
		</g>
	</g>
	<path style="opacity:0.1;fill:#F4F4F5;" d="M160.563,85.504c0,0,0,0,0-0.051c1.28-6.247,6.298-11.264,12.544-12.544
		c1.075-0.256,2.15-0.358,3.277-0.358H256v366.899h-79.616c-8.909,0-16.179-7.322-16.179-16.23V88.781
		C160.205,87.654,160.307,86.579,160.563,85.504z"/>
</g>
</svg>
